<?xml version="1.0" encoding="UTF-8"?>
<svg width="187px" height="350px" viewBox="0 0 187 350" version="1.1" xmlns="http://www.w3.org/2000/svg" xmlns:xlink="http://www.w3.org/1999/xlink">
    <!-- Generator: Sketch 49.3 (51167) - http://www.bohemiancoding.com/sketch -->
    <title>undraw_presentation1_tqkp</title>
    <desc>Created with Sketch.</desc>
    <defs>
        <radialGradient cx="44.1366678%" cy="64.8282493%" fx="44.1366678%" fy="64.8282493%" r="98.4694729%" gradientTransform="translate(0.441367,0.648282),scale(0.946429,1.000000),rotate(-24.869236),translate(-0.441367,-0.648282)" id="radialGradient-1">
            <stop stop-color="#5260FF" offset="0%"></stop>
            <stop stop-color="#490FA1" offset="100%"></stop>
        </radialGradient>
    </defs>
    <g id="Page-1" stroke="none" stroke-width="1" fill="none" fill-rule="evenodd">
        <g id="Home-page-Copy-9" transform="translate(-128.000000, -1931.000000)">
            <g id="Group-7" transform="translate(102.000000, 1657.000000)">
                <g id="undraw_presentation1_tqkp" transform="translate(154.000000, 449.000000) scale(-1, 1) translate(-154.000000, -449.000000) translate(26.000000, 274.000000)">
                    <g id="Group-31" transform="translate(81.500000, 51.000000) rotate(78.000000) translate(-81.500000, -51.000000) translate(35.000000, 42.000000)" fill-rule="nonzero">
                        <polygon id="Shape" fill="#664FEB" points="43.8275862 0 91.1901599 1.09828279 91.9310345 18 43.8275862 11.0222872"></polygon>
                        <path d="M2.06278287,0 L43.8275862,0 L43.8275862,11.3680471 L24.437023,9.09579422 C24.437023,9.09579422 20.7057581,21.9831984 10.2662259,9.09579422 L12.502315,5.30418425 L2.06278287,3.03193141 C2.06278287,3.03193141 -0.173306171,1.51935713 2.06278287,0 Z" id="Shape" fill="#C79740"></path>
                        <polygon id="Shape" fill="#000000" opacity="0.2" points="46.3879213 11.0222872 46.3879213 0.0328827183 44.8965517 0 44.8965517 11.0222872 93 18 92.9864421 17.7829741"></polygon>
                        <path d="M3.76242971,2.47430341 L43.6927321,2.47430341 L43.6927321,0.234055728 L1.50362334,0.234055728 C-0.755183024,1.72532508 1.50362334,3.22328173 1.50362334,3.22328173 L2.85216446,3.50414861 C3.03657685,3.0730577 3.35565247,2.71206568 3.76242971,2.47430341 Z" id="Shape" fill="#FFFFFF" opacity="0.460031703"></path>
                        <path d="M12.0492149,11.4219195 L14.3080212,7.68371517 L11.1052361,7.01498452 L9.75669496,9.18835913 C10.6812433,10.3216066 11.700778,11.375269 12.8043979,12.3380805 C12.5818886,12.043839 12.3189231,11.7495975 12.0492149,11.4219195 Z" id="Shape" fill="#FFFFFF" opacity="0.460031703"></path>
                    </g>
                    <path d="M130.127937,152.690527 L126,222.033287 L152.250992,225 L159.748398,167.152422 L164.997254,225 L192,225 L190.926065,155.876259 C190.892933,153.707774 189.091944,151.974437 186.89881,152.000285 L130.127937,152.690527 Z" id="Shape" fill="#664FEB" fill-rule="nonzero"></path>
                    <g id="Group" opacity="0.2" transform="translate(125.000000, 152.000000)" fill="#FFFFFF" fill-rule="nonzero">
                        <path d="M7.26,2.46621622 L63.66,1.79054054 L63.8133333,1.79054054 C63.0588874,0.817631584 61.900845,0.25575793 60.68,0.27027027 L4.28,0.945945946 L0.18,71.5405405 L3.22666667,71.8918919 L7.26,2.46621622 Z" id="Shape"></path>
                        <polygon id="Shape" points="34.08 16.0540541 35.0066667 30.4189189 38.92 74.5608108 41.7666667 74.5608108"></polygon>
                    </g>
                    <path d="M163.622472,232 C163.622472,232 154.044749,246.731511 210.027959,321.852331 C210.027959,321.852331 214.44439,326.268489 207.819743,335.107396 C207.819743,335.107396 200.456827,335.107396 201.926774,341 L215.182659,341 C215.182659,341 227.706867,326.268489 226.968598,322.590555 C226.230329,318.91262 188.670888,241.57713 188.670888,241.57713 L188.670888,232 L163.622472,232 Z" id="Shape" fill="#2F3131" fill-rule="nonzero"></path>
                    <path d="M210.376242,335.107396 C216.954248,326.268489 212.566731,321.852331 212.566731,321.852331 C157.03947,246.711737 166.533768,232 166.533768,232 L163.617475,232 C163.617475,232 154.116638,246.731511 209.650438,321.852331 C209.650438,321.852331 214.031416,326.268489 207.459949,335.107396 C207.459949,335.107396 200.15614,335.107396 201.614286,341 L204.537118,341 C203.046277,335.107396 210.376242,335.107396 210.376242,335.107396 Z" id="Shape" fill="#FFFFFF" fill-rule="nonzero" opacity="0.2"></path>
                    <path d="M124.796361,231.135585 L118.159603,332.491611 C118.159603,332.491611 113.735097,336.993635 99.7153576,332.491611 C87.2078746,328.459947 108.749273,352.52898 127.688799,349.780729 C131.579505,349.187297 134.633848,346.079441 135.217062,342.120568 L151,230 L124.796361,231.135585 Z" id="Shape" fill="#2F3131" fill-rule="nonzero"></path>
                    <path d="M102.642157,335.694951 C116.60706,340.166862 121.01426,335.694951 121.01426,335.694951 L128,232 L124.711045,232 L118.080512,332.711452 C118.080512,332.711452 113.673312,337.183363 99.708409,332.711452 C93.78829,330.82257 95.5182803,335.181015 100.945056,340 C98.0705094,336.575984 98.0178861,334.206539 102.642157,335.694951 Z" id="Shape" fill="#FFFFFF" fill-rule="nonzero" opacity="0.2"></path>
                    <rect id="Rectangle-path" fill="#664FEB" fill-rule="nonzero" x="145" y="64" width="36" height="30" rx="12"></rect>
                    <circle id="Oval" fill="#C79740" fill-rule="nonzero" cx="163" cy="44" r="18"></circle>
                    <path d="M158.979658,53 L164.014239,53 C166.767799,53 169,55.4996585 169,58.5831435 L169,66.4829157 C169,70.6344867 165.994588,74 162.287225,74 L160.712775,74 C157.005412,74 154,70.6344867 154,66.4829157 L154,58.5831435 C153.999998,55.5023253 156.228482,53.0037709 158.979658,53 Z" id="Shape" fill="#C79740" fill-rule="nonzero"></path>
                    <polygon id="Shape" fill="#664FEB" fill-rule="nonzero" points="206 142.963294 226.852056 193 241 187.02447 226.852056 134"></polygon>
                    <path d="M228,193.025475 L236.106332,208.861746 L238.315951,227.707381 L246.422283,236 C246.422283,236 248.631902,236 248.631902,234.495318 C248.631902,234.495318 250.84152,233.739603 250.84152,232.234922 C250.84152,232.234922 253.789877,231.479207 253.789877,229.974525 C254.379714,229.987546 254.949165,229.753581 255.36634,229.326819 C255.783515,228.900057 256.012224,228.31752 255.999496,227.714128 L249.364044,217.91008 L247.154425,201.324842 L241.99645,187 L228,193.025475 Z" id="Shape" fill="#C79740" fill-rule="nonzero"></path>
                    <path d="M125.255603,223 C125.255603,223 118.464088,228.248322 124.49949,232 L151.6588,232 C151.6588,232 154.676501,229.751678 151.6588,226 L125.255603,223 Z" id="Shape" fill="#6C63FF" fill-rule="nonzero"></path>
                    <path d="M164.580747,225 C164.580747,225 159.315263,226.496644 163.826612,231 L191.662307,231 C191.662307,231 194.672117,229.503356 191.662307,225 L164.580747,225 Z" id="Shape" fill="#6C63FF" fill-rule="nonzero"></path>
                    <path d="M125.255603,223 C125.255603,223 118.464088,228.248322 124.49949,232 L151.6588,232 C151.6588,232 154.676501,229.751678 151.6588,226 L125.255603,223 Z" id="Shape" fill="#000000" fill-rule="nonzero" opacity="0.2"></path>
                    <path d="M164.580747,225 C164.580747,225 159.315263,226.496644 163.826612,231 L191.662307,231 C191.662307,231 194.672117,229.503356 191.662307,225 L164.580747,225 Z" id="Shape" fill="#000000" fill-rule="nonzero" opacity="0.2"></path>
                    <polygon id="Shape" fill="#000000" fill-rule="nonzero" opacity="0.2" points="226.852056 134 226.718774 134.053472 240.253618 184.785318 226.105674 190.760847 206.159939 142.88977 206 142.963294 226.852056 193 241 187.02447"></polygon>
                    <path d="M148.271296,41.9966443 C148.271771,32.7885273 155.489695,25.0655209 165,24.0973296 C164.35387,24.0338513 163.704772,24.0024898 163.055288,24.00337 C156.291657,23.877601 149.985149,27.2799666 146.565064,32.8998578 C143.144979,38.5197489 143.144979,45.4802511 146.565064,51.1001422 C149.985149,56.7200334 156.291657,60.122399 163.055288,59.99663 C163.704772,59.9975102 164.35387,59.9661487 165,59.9026704 C155.487044,58.9342097 148.268204,51.2073277 148.271296,41.9966443 Z" id="Shape" fill="#FFFFFF" fill-rule="nonzero" opacity="0.2"></path>
                    <path d="M152.996226,80.8975548 C158.415749,83.9789127 164.952632,84.3915352 171.18843,84.0853959 C172.661459,84.1121944 174.121279,83.8049406 175.457141,83.1869438 C179.1839,81.137142 176.855512,68.9248486 176.05931,64.7653481 C188.972497,66.1629403 203.237219,79.9325507 211.072111,90.2348015 C215.166862,95.6188589 218.063965,101.808196 220.700129,108.030808 C223.670831,115.03208 226.367211,122.199731 227.825799,129.660211 C228.075115,130.501461 228.056417,131.398865 227.772273,132.229118 C227.330682,133.194122 226.260159,133.693263 225.283306,134.119195 L208.951136,141.113811 C208.282059,141.40664 207.445713,141.699469 206.790018,141.333433 C206.378374,141.042761 206.065614,140.634156 205.893454,140.162118 L188.122769,103.265685 C185.225665,104.93614 184.235431,108.74957 184.777384,112.043894 C185.319336,115.338219 186.958575,118.313094 188.269966,121.361176 C192.522739,131.409291 192.967284,142.650655 189.52114,153 C169.841355,152.937885 150.16603,152.531918 130.495166,151.782098 C129.23061,151.735512 127.818858,151.629029 126.942367,150.730577 C126.398716,150.085934 126.042432,149.305818 125.911988,148.474463 C124.177958,140.858693 125.865955,132.869364 130.53531,126.592163 C131.686123,125.068122 133.024277,123.630599 133.706735,121.847005 C134.576535,119.577582 134.275451,117.048605 133.954294,114.632768 L132.341818,102.333956 C132.271019,101.279372 132.000897,100.24753 131.545617,99.2925297 C130.066956,96.6304494 126.420487,96.384207 123.369495,96.350931 C113.42032,96.2311374 103.484526,96.4707246 93.8163636,94.1280939 C92.5651896,93.8286099 91.2002725,94.1680251 90.5245047,93.0765722 C90.0885474,92.1939434 89.9189051,91.2046159 90.0360785,90.2281463 C90.1297493,86.3947506 90.0360785,80.4716219 90.1230585,76.6382263 C99.5838075,76.5982951 109.231898,76.4119495 118.692647,76.3720182 C123.971665,76.3720182 130.863158,78.08906 134.221925,74.0360428 C139.460798,67.7202572 151.423895,64 151.423895,64 C151.423895,64 148.386285,78.2820609 152.996226,80.8975548 Z" id="Shape" fill="#7B65FC" fill-rule="nonzero"></path>
                    <path d="M163,85 L162,153" id="Shape" stroke="#FFFFFF" stroke-width="2"></path>
                    <g id="Group" opacity="0.2" transform="translate(90.000000, 64.000000)" fill="#FFFFFF" fill-rule="nonzero">
                        <path d="M85.6559669,20.4666667 C87.1277444,20.4935113 88.5863227,20.1857282 89.9210497,19.5666667 C93.3772376,17.66 91.6190608,6.97333333 90.7098895,2.12 C89.1874324,1.6288975 87.6199204,1.28946113 86.0303315,1.10666667 C86.8258564,5.27333333 89.1522652,17.5066667 85.428674,19.56 C84.093947,20.1790615 82.6353687,20.4868446 81.1635912,20.46 L80.2744751,20.4933333 C82.0794475,20.5866667 83.8777348,20.5666667 85.6559669,20.4666667 Z" id="Shape"></path>
                        <path d="M48.6807735,10.4266667 C51.7492265,6.71333333 57.1307182,3.9 61.0548619,2.20666667 C61.2353591,1.08 61.3824309,0.373333333 61.3824309,0.373333333 C61.3824309,0.373333333 49.4295028,4.1 44.1950829,10.4266667 C42.7711602,12.1466667 40.7121547,12.82 38.4124862,13.0333333 C42.3967956,13.2666667 46.3744199,13.22 48.6807735,10.4266667 Z" id="Shape"></path>
                        <path d="M120.331492,76.64 L102.575912,39.68 C101.263131,40.4742757 100.262785,41.6930299 99.7414365,43.1333333 L115.839116,76.6533333 C116.011129,77.1261844 116.323623,77.5354938 116.734917,77.8266667 C117.403425,78.1933333 118.19895,77.9 118.894199,77.6066667 L120.465193,76.94 L120.331492,76.64 Z" id="Shape"></path>
                        <path d="M44.9571823,88.3 C43.6937017,88.2533333 42.2831492,88.1466667 41.4074033,87.2466667 C40.8642143,86.6009139 40.508234,85.8194536 40.3779006,84.9866667 C38.6453449,77.3577754 40.3319063,69.3546823 44.9972928,63.0666667 C46.1471271,61.54 47.4841436,60.1 48.1660221,58.3133333 C49.0350829,56.04 48.7342541,53.5066667 48.4133702,51.0866667 L46.7955801,38.7733333 C46.7246824,37.7169576 46.4547982,36.6833668 46.0000552,35.7266667 C44.5226519,33.06 40.8792818,32.8133333 37.830884,32.78 C27.8901657,32.66 17.9628177,32.9 8.30287293,30.5533333 C7.05276243,30.2533333 5.68900552,30.5933333 5.01381215,29.5 C4.57822538,28.6158506 4.40872729,27.6248186 4.5258011,26.6466667 C4.61939227,22.8066667 4.5258011,16.8733333 4.61270718,13.0333333 C12.989116,13 21.4992265,12.8533333 29.9090608,12.7866667 C29.4945856,12.7866667 29.0801105,12.7866667 28.6790055,12.7866667 C19.2262983,12.8266667 9.58640884,13.0133333 0.133701657,13.0533333 C0.0401104972,16.8933333 0.133701657,22.8266667 0.0467955801,26.6666667 C-0.0702782314,27.6448186 0.0992198554,28.6358506 0.53480663,29.52 C1.20331492,30.6066667 2.58044199,30.2666667 3.8238674,30.5733333 C13.4838122,32.9133333 23.4111602,32.6733333 33.3518785,32.8 C36.3935912,32.84 40.0369613,33.1 41.5210497,35.7466667 C41.9757927,36.7033668 42.2456769,37.7369576 42.3165746,38.7933333 L43.9276796,51.1133333 C44.2418785,53.5266667 44.5493923,56.06 43.6803315,58.34 C43.0118232,60.1266667 41.6748066,61.5666667 40.5116022,63.0933333 C35.8462157,69.381349 34.1596543,77.3844421 35.8922099,85.0133333 C36.0225434,85.8461203 36.3785237,86.6275806 36.9217127,87.2733333 C37.8108287,88.1733333 39.208011,88.28 40.4714917,88.3266667 C60.1211786,89.0777778 79.779779,89.4844444 99.4472928,89.5466667 L99.4472928,89.5133333 C81.2816943,89.3888889 63.1183241,88.9844444 44.9571823,88.3 Z" id="Shape"></path>
                    </g>
                    <path d="M168.103624,40.3552488 C168.978894,40.6284425 169.933734,40.5484833 170.809004,40.821677 C174.28356,41.9277782 173.786247,46.8719171 173.859187,50.5300468 C173.96528,56.0605526 176.99557,61.0846506 180.350771,65.4624124 C189.095998,76.8271952 200.557481,85.7868061 213.670702,91.5090956 C216.323034,92.6751661 219.366586,93.9678385 220.43415,96.6997751 C220.762081,97.830757 221.01898,98.981325 221.203327,100.144681 C222.728418,106.141615 232.018214,108.140592 235.837573,103.24976 C238.277719,100.124691 238.251196,95.6736331 240.326646,92.3020235 C241.400841,90.5629127 242.978979,89.1702914 243.94708,87.3645479 C246.884539,81.8140523 242.899409,75.3307004 241.407472,69.220491 C239.855857,62.863741 241.128977,56.1938178 240.936683,49.6504965 C240.532202,36.0840992 233.556567,23.0974055 223.232361,14.3352186 C212.908156,5.57303175 199.493983,0.928739547 186.006871,0.109158571 C175.914744,-0.503861347 164.914194,1.34852493 157.878882,8.64479459 C153.422962,13.269097 151.102171,19.4992451 147.800017,25.0097611 C144.497863,30.5202771 139.398753,35.7709259 133,36.0307931 C133.119355,38.4428932 136.759682,38.2296689 138.967749,37.2168534 C143.609331,35.0712836 154.51705,27.261943 159.708991,28.8144825 C164.900933,30.3670221 163.090715,38.4695462 168.103624,40.3552488 Z" id="Shape" fill="url(#radialGradient-1)" fill-rule="nonzero"></path>
                    <g id="Group" opacity="0.2" transform="translate(131.000000, 4.000000)" fill="#FFFFFF" fill-rule="nonzero">
                        <path d="M18.34,18.3666667 C21.6733333,12.8466667 23.9933333,6.62 28.4733333,1.99333333 C28.9177778,1.54888889 29.3777778,1.10444444 29.8533333,0.66 C28.2669347,1.66852621 26.8036975,2.85880477 25.4933333,4.20666667 C21.0133333,8.83333333 18.68,15.0666667 15.36,20.58 C13.8924568,23.0757932 12.0713503,25.3460012 9.95333333,27.32 C13.3933333,25.26 16.2333333,21.8666667 18.34,18.3666667 Z" id="Shape"></path>
                        <path d="M92.14,93.5533333 C91.9546049,92.3893929 91.6963191,91.2382399 91.3666667,90.1066667 C90.2933333,87.38 87.26,86.1066667 84.5666667,84.9133333 C71.38198,79.1828616 59.8587595,70.2142417 51.0666667,58.84 C47.6933333,54.46 44.64,49.4266667 44.54,43.9 C44.4733333,40.24 44.9666667,35.2933333 41.4733333,34.1866667 C40.5933333,33.9066667 39.6333333,33.9933333 38.7533333,33.72 C33.7133333,31.8266667 35.58,23.72 30.2933333,22.1733333 C25.0066667,20.6266667 14.0866667,28.4333333 9.44,30.58 C7.87333333,31.3066667 5.55333333,31.6133333 4.32,30.8533333 C3.08995769,31.3079894 1.79677214,31.5688755 0.486666667,31.6266667 C0.606666667,34.04 4.26666667,33.8266667 6.48666667,32.8133333 C11.1533333,30.6666667 22.12,22.8533333 27.34,24.4066667 C32.56,25.96 30.76,34.06 35.8,35.9533333 C36.68,36.2266667 37.64,36.1466667 38.52,36.42 C42.0133333,37.5266667 41.5133333,42.4733333 41.5866667,46.1333333 C41.6933333,51.6666667 44.74,56.6933333 48.1133333,61.0733333 C56.8996162,72.4391477 68.4131575,81.4027871 81.5866667,87.1333333 C84.2533333,88.3 87.3133333,89.5933333 88.3866667,92.3266667 C88.7163191,93.4582399 88.9746049,94.6093929 89.16,95.7733333 C90.6933333,101.773333 100.033333,103.773333 103.873333,98.88 L103.926667,98.8 C99.5266667,100.58 93.3333333,98.3533333 92.14,93.5533333 Z" id="Shape"></path>
                    </g>
                    <path d="M239.007259,227.708523 L236.807121,208.865483 L228.735569,193.031392 L242.041479,187.276607 L241.942966,187 L228,193.031392 L236.071552,208.865483 L238.27169,227.708523 L246.343242,236 C246.563777,235.993881 246.783443,235.969059 247,235.925788 L239.007259,227.708523 Z" id="Shape" fill="#FFFFFF" fill-rule="nonzero" opacity="0.2"></path>
                    <polygon id="Shape" fill="#FFFFFF" fill-rule="nonzero" opacity="0.2" points="229.084539 188.540958 208.419078 140 206 141.020675 226.852056 190 241 184.150746 240.866717 183.666579"></polygon>
                </g>
            </g>
        </g>
    </g>
</svg>