<?xml version="1.0" encoding="UTF-8"?>
<svg width="176px" height="97px" viewBox="0 0 176 97" version="1.1" xmlns="http://www.w3.org/2000/svg" xmlns:xlink="http://www.w3.org/1999/xlink">
    <!-- Generator: Sketch 49.3 (51167) - http://www.bohemiancoding.com/sketch -->
    <title>Group 44</title>
    <desc>Created with Sketch.</desc>
    <defs>
        <linearGradient x1="19006%" y1="55546%" x2="19006%" y2="55512%" id="linearGradient-1">
            <stop stop-color="#808080" stop-opacity="0.25" offset="0%"></stop>
            <stop stop-color="#808080" stop-opacity="0.12" offset="54%"></stop>
            <stop stop-color="#808080" stop-opacity="0.1" offset="100%"></stop>
        </linearGradient>
        <linearGradient x1="23049%" y1="77065%" x2="23049%" y2="54893%" id="linearGradient-2">
            <stop stop-color="#808080" stop-opacity="0.25" offset="0%"></stop>
            <stop stop-color="#808080" stop-opacity="0.12" offset="54%"></stop>
            <stop stop-color="#808080" stop-opacity="0.1" offset="100%"></stop>
        </linearGradient>
        <radialGradient cx="134.449202%" cy="62.1362406%" fx="134.449202%" fy="62.1362406%" r="107.489376%" id="radialGradient-3">
            <stop stop-color="#923BFF" offset="0%"></stop>
            <stop stop-color="#65A9F7" offset="100%"></stop>
        </radialGradient>
        <path d="M29,17.2869633 C29,17.2869633 17.8547204,33.3876175 22.9631502,40 L3,39.524289 C3,39.524289 8.57052014,3.08050381 29,17.2869633 Z" id="path-4"></path>
        <filter x="-63.5%" y="-63.5%" width="226.9%" height="226.9%" filterUnits="objectBoundingBox" id="filter-5">
            <feOffset dx="0" dy="0" in="SourceAlpha" result="shadowOffsetOuter1"></feOffset>
            <feGaussianBlur stdDeviation="5.5" in="shadowOffsetOuter1" result="shadowBlurOuter1"></feGaussianBlur>
            <feColorMatrix values="0 0 0 0 0.694286616   0 0 0 0 0.754203947   0 0 0 0 1  0 0 0 0.5 0" type="matrix" in="shadowBlurOuter1"></feColorMatrix>
        </filter>
        <linearGradient x1="109809%" y1="20015%" x2="109809%" y2="19987%" id="linearGradient-6">
            <stop stop-color="#808080" stop-opacity="0.25" offset="0%"></stop>
            <stop stop-color="#808080" stop-opacity="0.12" offset="54%"></stop>
            <stop stop-color="#808080" stop-opacity="0.1" offset="100%"></stop>
        </linearGradient>
        <linearGradient x1="106487%" y1="38399%" x2="106487%" y2="19473%" id="linearGradient-7">
            <stop stop-color="#808080" stop-opacity="0.25" offset="0%"></stop>
            <stop stop-color="#808080" stop-opacity="0.12" offset="54%"></stop>
            <stop stop-color="#808080" stop-opacity="0.1" offset="100%"></stop>
        </linearGradient>
        <radialGradient cx="134.449202%" cy="62.1362406%" fx="134.449202%" fy="62.1362406%" r="120.48947%" gradientTransform="translate(1.344492,0.621362),scale(0.842105,1.000000),rotate(146.906507),translate(-1.344492,-0.621362)" id="radialGradient-8">
            <stop stop-color="#923BFF" offset="0%"></stop>
            <stop stop-color="#65A9F7" offset="100%"></stop>
        </radialGradient>
        <path d="M20.0656688,18.9027273 C20.6312936,19.7596053 20.8974699,20.7664369 21.2260314,21.7304247 C21.9289033,23.7140972 23.168287,25.6292196 25.0481575,26.46896 C26.0878054,26.8968002 27.2097525,27.0698726 28.325454,26.974518 C30.0181692,26.8802614 31.8023826,26.3190063 32.8546111,24.9480015 C33.5005786,24.024186 33.8797751,22.9310207 33.9484295,21.7946905 C34.2897363,18.3691738 32.9210451,14.9991577 30.3134586,12.8445999 C27.7099211,10.7880927 23.929385,10.3767913 21.0513532,11.9877219 C20.5347151,12.3324056 19.9840295,12.6196398 19.4085459,12.8445999 C18.5064464,13.108259 17.5362106,12.9019651 16.8091674,12.2919136 C16.7171727,12.8064219 16.8694942,13.3352312 17.219018,13.714778 C17.5685419,14.0943248 18.0731426,14.2788654 18.5767448,14.2113203 C17.5801491,14.8637051 16.3720984,15.0795984 15.2204273,14.8111349 C16.0203035,16.1172822 17.6586102,16.5736684 18.9884864,15.8608104 C17.7708124,16.6064913 16.4094646,17.0685925 15,17.2146777 C15.2952894,17.1846869 15.9316173,17.668823 16.3017688,17.7330889 C16.7574359,17.7526697 17.2138924,17.7311659 17.6659226,17.668823 C18.6237804,17.6018161 19.5418744,18.0738828 20.0656688,18.9027273 Z" id="path-9"></path>
        <filter x="-86.8%" y="-103.1%" width="273.7%" height="306.2%" filterUnits="objectBoundingBox" id="filter-10">
            <feOffset dx="0" dy="0" in="SourceAlpha" result="shadowOffsetOuter1"></feOffset>
            <feGaussianBlur stdDeviation="5.5" in="shadowOffsetOuter1" result="shadowBlurOuter1"></feGaussianBlur>
            <feColorMatrix values="0 0 0 0 0.694286616   0 0 0 0 0.754203947   0 0 0 0 1  0 0 0 0.5 0" type="matrix" in="shadowBlurOuter1"></feColorMatrix>
        </filter>
        <linearGradient x1="49.9831446%" y1="100.014271%" x2="49.9831446%" y2="-0.0285415279%" id="linearGradient-11">
            <stop stop-color="#808080" stop-opacity="0.25" offset="0%"></stop>
            <stop stop-color="#808080" stop-opacity="0.12" offset="54%"></stop>
            <stop stop-color="#808080" stop-opacity="0.1" offset="100%"></stop>
        </linearGradient>
        <radialGradient cx="134.449202%" cy="62.1362406%" fx="134.449202%" fy="62.1362406%" r="111.738217%" gradientTransform="translate(1.344492,0.621362),scale(0.941176,1.000000),rotate(143.930252),translate(-1.344492,-0.621362)" id="radialGradient-12">
            <stop stop-color="#923BFF" offset="0%"></stop>
            <stop stop-color="#65A9F7" offset="100%"></stop>
        </radialGradient>
        <path d="M15.545801,16.0323949 L15.126318,26 L5,26 L5,20.738838 C5,10.1125041 15.8729977,6.07779093 21.9974485,14.6195952 C22.1484623,14.8276148 15.545801,16.0323949 15.545801,16.0323949 Z" id="path-13"></path>
        <filter x="-97.1%" y="-103.1%" width="294.1%" height="306.2%" filterUnits="objectBoundingBox" id="filter-14">
            <feOffset dx="0" dy="0" in="SourceAlpha" result="shadowOffsetOuter1"></feOffset>
            <feGaussianBlur stdDeviation="5.5" in="shadowOffsetOuter1" result="shadowBlurOuter1"></feGaussianBlur>
            <feColorMatrix values="0 0 0 0 0.694286616   0 0 0 0 0.754203947   0 0 0 0 1  0 0 0 0.5 0" type="matrix" in="shadowBlurOuter1"></feColorMatrix>
        </filter>
    </defs>
    <g id="Page-1" stroke="none" stroke-width="1" fill="none" fill-rule="evenodd">
        <g id="Home-page-Copy-9" transform="translate(-638.000000, -2901.000000)" fill-rule="nonzero">
            <g id="Group-44" transform="translate(645.000000, 2901.000000)">
                <g id="Group" transform="translate(0.000000, 2.000000)">
                    <g id="Group-36">
                        <path d="M10.565,3.245 L10.61,3.095 C10.61,3.095 10.055,3.015 10.565,3.245 Z" id="Shape" fill="url(#linearGradient-1)"></path>
                        <path d="M53.713125,11.0123318 C53.6688247,10.8664032 53.613829,10.7240068 53.5485937,10.5863229 C53.5485937,10.543722 53.5021875,10.5053812 53.4810937,10.4627803 C53.4388844,10.3808361 53.3924133,10.3012032 53.341875,10.2242152 C53.3123437,10.1816143 53.2785937,10.1432735 53.2490625,10.1006726 C53.2014142,10.0385192 53.1507263,9.97880384 53.0971875,9.92174888 L52.9875,9.81524664 C52.9326562,9.76412556 52.8778125,9.71726457 52.81875,9.67466368 L52.700625,9.58946188 L52.515,9.47869955 L52.396875,9.41479821 L52.1859375,9.32533632 L52.0804687,9.28273543 C51.9792187,9.24865471 51.879375,9.22025411 51.7809375,9.19753363 C51.1084275,9.06880239 50.4163611,9.08769018 49.7517187,9.2529148 C49.7517187,9.2529148 47.8153125,12.1369955 48.5620312,13.1721973 L48.3173437,13.0955157 C48.3173437,13.0955157 33.935625,29.2838565 25.8229687,32.3085202 C25.6148437,32.1665172 25.3996875,32.0330344 25.1775,31.9080717 L25.1775,28.879148 C25.184135,28.7528541 25.184135,28.6262939 25.1775,28.5 C25.1640105,28.3783496 25.1442967,28.2574855 25.1184375,28.1378924 L25.1775,28.1038117 L25.4179687,27.9674888 L25.768125,27.7544843 L25.9917187,27.6096413 C26.1576562,27.4931988 26.319375,27.3710762 26.476875,27.2432735 L26.6582812,27.0856502 C26.7679687,26.9919283 26.8734375,26.8939462 26.9789062,26.791704 L27.1645312,26.6085202 C27.2939062,26.4750374 27.4176562,26.3330344 27.5357812,26.1825112 L27.6665625,26.0206278 C27.7790625,25.8814649 27.8859375,25.7394619 27.9871875,25.5946188 L28.1179687,25.3986547 C28.2107812,25.2566517 28.299375,25.1146487 28.38375,24.9726457 L28.4639062,24.8278027 C28.5651562,24.6360987 28.6621875,24.4358744 28.7465625,24.2313901 L28.8182812,24.0524664 C28.8829687,23.8877429 28.9434375,23.7215994 28.9996875,23.5540359 C28.9996875,23.4943946 29.0376562,23.4390135 29.05875,23.3793722 C29.12625,23.1621076 29.1810937,22.9533632 29.2275,22.7147982 C29.2275,22.6721973 29.2275,22.6253363 29.2528125,22.5784753 C29.289375,22.3881913 29.3189062,22.1950673 29.3414062,21.9991031 C29.3414062,21.9352018 29.3414062,21.8670404 29.3414062,21.803139 C29.3625,21.564574 29.379375,21.3217489 29.379375,21.0789238 C29.3818038,19.2628685 28.7650637,17.5013237 27.6328125,16.0903587 C28.24875,15.1190583 28.6495312,14.5482063 28.6495312,14.5482063 C28.2782812,14.2926009 27.9154687,14.0540359 27.5526562,13.8325112 L27.2025,13.6237668 C26.9620312,13.4789238 26.7173437,13.3340807 26.4810937,13.1977578 L26.0592187,12.9804933 C25.8440625,12.8654709 25.6373437,12.7547085 25.41375,12.6482063 L24.991875,12.4565022 C24.7851562,12.3627803 24.57,12.2690583 24.3801562,12.1881166 L23.9582812,12.0262332 C23.7557812,11.9452915 23.5364062,11.87287 23.3507812,11.8047085 L22.9710937,11.6769058 C22.764375,11.6087444 22.5492187,11.5533632 22.3509375,11.4979821 L22.0134375,11.4042601 C21.7814062,11.3488789 21.5535937,11.2977578 21.3257812,11.255157 L21.0810937,11.2040359 C20.773125,11.1486547 20.4651562,11.1060538 20.1614062,11.0762332 C18.278655,10.8741938 16.3761712,11.1677196 14.6390625,11.9282511 C14.731875,9.69596413 15.103125,7.85986547 15.879375,6.72242152 L15.6895312,6.65852018 L15.6220312,6.72242152 C15.6220312,6.72242152 15.3942187,6.7735426 15.0440625,6.83744395 C14.9319898,7.0194517 14.8319288,7.20872659 14.7445312,7.40403587 C14.8997086,6.61542306 15.1986926,5.86280559 15.62625,5.18452915 L15.4364062,5.1206278 C15.710625,4.83946188 16.7020312,3.60829596 15.3689062,1.59753363 C13.8459375,-0.707174888 11.053125,1.08632287 11.053125,1.08632287 C10.8365523,1.845635 10.6952331,2.62479904 10.63125,3.41233184 C10.4160937,3.32713004 10.2684375,3.25896861 10.1671875,3.20784753 C8.82989242,7.97097734 8.10117172,12.8872191 7.99875,17.8369955 C2.97,25.0493274 0.8859375,35.6952915 0.4809375,37.9914798 L0.45140625,38.1746637 C0.421875,38.3408072 0.40921875,38.4302691 0.40921875,38.4302691 L13.4873437,38.7369955 C13.4873437,38.7838565 13.4873437,38.8264574 13.4873437,38.8733184 L13.4873437,59.7818386 L3.94453125,80.1024664 C3.94453125,80.1024664 7.5515625,80.2345291 13.0359375,80.9544843 L11.5298437,91.8262332 L11.0278125,94.8764574 L20.0896875,94.8764574 C21.0979687,92.8443946 16.0607812,91.8262332 16.0607812,91.8262332 L15.946875,91.8262332 L17.9128125,81.6829596 C18.781875,81.8306428 19.6748437,81.9925262 20.5917187,82.1686099 C21.9374695,82.4307198 23.3014853,82.585978 24.67125,82.6329596 C25.805401,82.6730728 26.9409203,82.6232187 28.0673437,82.4838565 C28.7296875,87.9836323 27.860625,91.2681614 27.691875,91.8304933 L27.6370312,91.8304933 L27.135,94.8807175 L36.196875,94.8807175 C37.074375,93.1085202 33.3576562,92.1073991 32.4,91.8986547 L32.4421875,91.6004484 C32.9093149,88.1695777 33.0294651,84.6996086 32.8007812,81.2441704 C33.9664695,80.7653812 35.05327,80.1103587 36.0239062,79.3015695 L36.1504687,79.1908072 L36.1884375,79.1524664 L29.4384375,60.0374439 C30.7040625,54.62713 26.308125,48.9612108 28.65375,46.1026906 C30.999375,43.2441704 29.5607812,39.6358744 29.3034375,39.0181614 C35.6315625,36.2235426 48.4523437,29.2199552 52.0467187,17.0914798 C52.3104002,16.2386104 52.524515,15.370914 52.6879687,14.4928251 C52.6879687,14.4928251 54.5020312,13.6663677 53.713125,11.0123318 Z" id="Shape" fill="url(#linearGradient-2)"></path>
                        <path d="M12.0342318,7.01794968 C12.0342318,7.01794968 5.16486364,28.8906213 16.6728475,41 L20,38.4452788 C20,38.4452788 13.1938857,14.5714088 17.0017675,8.96379569 C10.2884255,6.67732018 12.0342318,7.01794968 12.0342318,7.01794968 Z" id="Shape" fill="#FF5252"></path>
                        <path d="M16.3784038,8.66473615 C16.3784038,8.66473615 17.7769953,7.41052621 16.3784038,5.15203947 C14.9798122,2.89355273 12.4150235,4.65217319 12.4150235,4.65217319 C12.4150235,4.65217319 11.4812207,7.91039249 12.4150235,8.66473615 C13.3488263,9.41907981 16.3784038,8.66473615 16.3784038,8.66473615 Z" id="Shape" fill="#F6B9AD"></path>
                        <rect id="Rectangle-path" fill="#F6B9AD" transform="translate(22.500000, 32.000000) rotate(-180.000000) translate(-22.500000, -32.000000) " x="19" y="27" width="7" height="10" rx="3.5"></rect>
                        <path d="M19.2787356,39.4571504 C19.2787356,39.4571504 12.3528595,15.9474662 16.1242902,10.1655612 C16.4588526,10.1061289 16.6717559,10.0594322 16.6717559,10.0594322 L16.7325854,10 L16.910729,10.0594322 C13.0002595,15.6503051 20,39.4529053 20,39.4529053 L16.5718217,42 L16.272019,41.6858583 L19.2787356,39.4571504 Z" id="Shape" fill="#FFFFFF" opacity="0.2"></path>
                        <circle id="Oval" fill="#F6B9AD" cx="22.5" cy="23.5" r="7.5"></circle>
                        <path d="M25.1206406,33.6938643 L25.1206406,30.5067442 C25.1196262,30.2736521 25.0928788,30.0413278 25.0408515,29.813706 C28.0798741,28.3017188 29.6949253,25.0142565 28.9844006,21.7865491 C28.2738759,18.5588418 25.4134666,16.1890037 22,16 L22.4432728,16 C25.9329218,16.0126078 28.9632896,18.321652 29.7856672,21.5946715 C30.6080448,24.8676911 29.0101633,28.2598676 25.914099,29.813706 C25.9661263,30.0413278 25.9928736,30.2736521 25.9938881,30.5067442 L25.9938881,33.6938643 C26.0013569,34.6445207 25.5812319,35.5515726 24.8422702,36.1802126 C24.1033084,36.8088526 23.1181594,37.0972774 22.1418473,36.9708227 C23.8438752,36.7505653 25.1159312,35.3511817 25.1206406,33.6938643 Z" id="Shape" fill="#FFFFFF" opacity="0.2"></path>
                        <path d="M15,59.2931422 C15,59.2931422 28.8530883,60.8835722 29.3652328,59.2931422 C31.0192076,54.1466303 26.5862193,48.6035769 28.8111093,45.8917446 C31.1115615,43.0903707 29.3652328,39.2955111 29.3652328,39.2955111 C29.3652328,37.3606212 28.608495,35.5049794 27.2614932,34.1368057 C25.9144913,32.768632 24.0875647,32 22.1826164,32 C18.2157669,32 15,35.2663116 15,39.2955111 L15,59.2931422 Z" id="Shape" fill="#FF5252"></path>
                        <path d="M28.8511958,45.8921242 C31.0740823,43.0906737 29.3866356,39.2957104 29.3866356,39.2957104 C29.3866356,37.3607677 28.6554132,35.5050752 27.3538291,34.1368641 C26.0522449,32.768653 24.2869179,32 22.4461998,32 C22.2961144,32 22.1500854,32 22,32.025584 C25.6486936,32.270709 28.4890662,35.4524187 28.4901796,39.2957104 C28.4901796,39.2957104 30.1776263,43.0906737 27.9547398,45.8921242 C25.8008114,48.6082946 30.0843299,54.1514995 28.4901796,59.293888 C28.3360378,59.7842484 26.9568747,59.9718646 25.1233989,59.9974486 C27.3868491,60.0230326 29.2040993,59.8610005 29.3785229,59.293888 C31.0010678,54.1472355 26.7013238,48.6040306 28.8511958,45.8921242 Z" id="Shape" fill="#FFFFFF" opacity="0.2"></path>
                        <path d="M26.5694464,59 C31.7573848,66.2383458 34.0354357,77.1679088 32.5568517,87.6863949 L32.5138697,88 L28.082416,88 C28.082416,88 29.4535447,84.0248429 28.082416,77.0068683 C27.239462,72.8042215 24.8515381,69.0567656 21.3772097,66.4841444 L17.1133862,88 L13,88 L17.1133862,59 L26.5694464,59 Z" id="Shape" fill="#F6B9AD"></path>
                        <path d="M50.880245,17 C50.880245,17 52.5400648,16.2738989 51.8180432,13.786894 C51.0960216,11.299889 48.2286829,12.1346879 48.2286829,12.1346879 C48.2286829,12.1346879 46.4817225,14.8347405 47.1539495,15.8043245 C47.8261766,16.7739086 50.880245,17 50.880245,17 Z" id="Shape" fill="#F6B9AD"></path>
                        <path d="M26.4781682,41 C26.4781682,41 47.943146,33.8736914 51,17.2484984 L47.0219023,16 C47.0219023,16 31.2225731,34.0710486 24.539369,34.1997597 C17.8561648,34.3284709 26.4781682,41 26.4781682,41 Z" id="Shape" fill="#FF5252"></path>
                        <path d="M50.3354643,17 L51,17.2105263 C47.9465007,33.8635875 26.3827389,41 26.3827389,41 L26,40.6949517 C28.5361709,39.7841031 47.4880552,32.5316864 50.3354643,17 Z" id="Shape" fill="#FFFFFF" opacity="0.2"></path>
                        <path d="M20.51775,66.8857143 L16.2975,88.6442857 L17.2325,88.6442857 L21.3295,67.52 C21.0697924,67.2947848 20.7988568,67.0830809 20.51775,66.8857143 Z" id="Shape" fill="#FFFFFF"></path>
                        <path d="M26.5825,59.3214286 L25.65175,59.3214286 C30.7815,66.6414286 33.034,77.6942857 31.572,88.3314286 L31.5295,88.6485714 L32.46025,88.6485714 L32.50275,88.3314286 C33.95625,77.6942857 31.6825,66.6371429 26.5825,59.3214286 Z" id="Shape" fill="#FFFFFF"></path>
                        <path d="M50.3540583,16.8629531 C50.3540583,16.8629531 52.1108183,16.1246684 51.3466277,13.5959328 C51.1631334,12.8702773 50.6455329,12.2769456 49.9543954,12 C50.8559233,12.1645206 51.5807153,12.8406254 51.8121691,13.7329797 C52.5631839,16.2617153 50.8195997,17 50.8195997,17 C49.8631533,16.9258225 48.9176519,16.7464452 48,16.4650752 C48.7723454,16.6632863 49.5597556,16.7963727 50.3540583,16.8629531 Z" id="Shape" fill="#FFFFFF" opacity="0.2"></path>
                        <path d="M14.8857184,59 L6,77.6902098 C11.1940239,77.9482635 16.3631865,78.5726908 21.4686831,79.5588041 C31.3131688,81.4273985 36,76.7559126 36,76.7559126 L29.6524469,59.0042662 L14.8857184,59 Z" id="Shape" fill="#263238"></path>
                        <path d="M16.9248084,88 C16.9248084,88 21.8721045,89 20.8646551,91 L12,91 L12.4947296,88 L16.9248084,88 Z" id="Shape" fill="#FF5252"></path>
                        <path d="M31.9248084,88 C31.9248084,88 36.8721045,89 35.8646551,91 L27,91 L27.4947296,88 L31.9248084,88 Z" id="Shape" fill="#FF5252"></path>
                        <g id="Shape">
                            <use fill="black" fill-opacity="1" filter="url(#filter-5)" xlink:href="#path-4"></use>
                            <use fill="url(#radialGradient-3)" fill-rule="evenodd" xlink:href="#path-4"></use>
                        </g>
                        <path d="M29,17.2343047 C26.1210046,15.229642 23.5388128,14.2338052 21.2237443,14 C23.1722256,14.6256835 25.0133031,15.5576566 26.6806915,16.7623647 C26.6806915,16.7623647 15.5378343,32.8819317 20.6428571,39.5237302 L3.06784083,39.0907577 C3.02120026,39.3592007 3,39.5237302 3,39.5237302 L22.9664057,40 C17.8529028,33.3538718 29,17.2343047 29,17.2343047 Z" id="Shape" fill="#FFFFFF" opacity="0.2"></path>
                        <path d="M29.4798564,59 L28.0538492,59 L34.5608297,76.7582661 C34.5608297,76.7582661 31.4543279,79.7713244 25,79.9889816 C32.4327882,80.2194422 36,76.7582661 36,76.7582661 L29.4798564,59 Z" id="Shape" fill="#FFFFFF" opacity="0.2"></path>
                        <path d="M16.9768405,88 L16,88 C16,88 20.9065048,89 19.907362,91 L20.8663607,91 C21.861043,89 16.9768405,88 16.9768405,88 Z" id="Shape" fill="#FFFFFF" opacity="0.2"></path>
                        <path d="M31.9742351,88 L31,88 C31,88 35.8934183,89 34.8969404,91 L35.8711755,91 C36.8454106,89 31.9742351,88 31.9742351,88 Z" id="Shape" fill="#FFFFFF" opacity="0.2"></path>
                    </g>
                </g>
                <g id="Group" transform="translate(120.000000, 0.000000)">
                    <g id="Group-38">
                        <g id="Group-42">
                            <path d="M31.315,2.155 L31.365,2.275 C31.765,2.015 31.315,2.155 31.315,2.155 Z" id="Shape" fill="url(#linearGradient-6)"></path>
                            <path d="M37.38,80.3132642 L44.8242857,78.1889119 L43.2428571,73.7362694 L43.2214286,73.6725389 L43.1957143,73.6725389 L34.8985714,49.8075648 L32.7557143,31.9417617 C32.7289026,31.7147552 32.6902797,31.4892734 32.64,31.2662176 C39.4157143,19.7607254 32.64,3.74735751 32.0357143,2.35378238 C31.9585714,2.40476684 31.8385714,2.47274611 31.6671429,2.56621762 C31.5332252,1.92649613 31.335096,1.30165862 31.0757143,0.701036269 C31.0757143,0.701036269 28.5685714,-0.497098446 27.5228571,1.5507772 C26.61,3.33098446 27.5528571,4.24445596 27.8142857,4.44839378 L27.6642857,4.52062176 C28.0869658,5.03505612 28.4095806,5.62284968 28.6157143,6.25409326 C28.5222703,6.10597884 28.419195,5.96405499 28.3071429,5.8292228 C28.0071429,5.8292228 27.81,5.79098446 27.81,5.79098446 L27.75,5.7442487 L27.6,5.81647668 C28.5471429,6.89139896 29.0742857,8.90953368 29.3142857,11.3780311 C28.9933357,11.028086 28.6419841,10.7067809 28.2642857,10.4178238 C26.6245423,9.19598601 24.5858535,8.62069632 22.5428571,8.80331606 L22.17,8.84580311 C21.9585714,8.87412781 21.75,8.91236615 21.5442857,8.96051813 L21.39,8.99450777 L21.1285714,9.06248705 L20.8285714,9.15595855 L20.6142857,9.22818653 L20.2457143,9.37264249 L20.1085714,9.43212435 C19.9585714,9.50010363 19.8085714,9.57233161 19.68,9.64880829 C19.1985555,9.95522526 18.685687,10.2101571 18.15,10.4093264 C18.0771429,10.4305699 18,10.4433161 17.9271429,10.4603109 C17.3087601,10.5769858 16.6686849,10.4747364 16.1185714,10.171399 L15.9342857,10.0609326 C15.863197,10.0148806 15.7945356,9.96524727 15.7285714,9.91222798 C15.690497,10.0815139 15.690497,10.2570353 15.7285714,10.4263212 C15.8115193,10.8294655 16.051833,11.1837688 16.3971429,11.4120207 C16.4932534,11.4776545 16.5968232,11.5318443 16.7057143,11.5734715 C16.8682359,11.6351212 17.0419086,11.662611 17.2157143,11.6541969 C17.2747483,11.6515906 17.3334929,11.6444885 17.3914286,11.6329534 L17.3485714,11.6584456 C17.2457143,11.7221762 17.1428571,11.781658 17.0357143,11.8326425 L17.0142857,11.8326425 C16.8985714,11.8878756 16.7828571,11.9388601 16.6671429,11.9855959 C16.0736312,12.2108559 15.435169,12.2952491 14.8028571,12.2320207 L14.5971429,12.2065285 C14.4942857,12.2065285 14.3914286,12.1767876 14.2928571,12.1512953 C14.3323788,12.2171694 14.3752927,12.2809843 14.4214286,12.342487 L14.4685714,12.3977202 L14.5671429,12.5166839 L14.6228571,12.5761658 L14.73,12.6823834 L14.79,12.7376166 L14.9185714,12.8395855 L14.97,12.8778238 L15.1585714,13.0010363 L15.2228571,13.0350259 L15.36,13.1072539 L15.45,13.1454922 L15.57,13.1964767 L15.6685714,13.2304663 L15.7885714,13.2687047 L15.8871429,13.2984456 L16.0242857,13.3281865 L16.1914286,13.3579275 L16.3157143,13.3579275 L16.4357143,13.3579275 L16.77,13.3579275 L16.8942857,13.3579275 L16.9971429,13.3579275 L17.1171429,13.3579275 C17.3546103,13.3097089 17.5830594,13.2251386 17.7942857,13.1072539 C17.6614286,13.1879793 17.5242857,13.2602073 17.3657143,13.3324352 L17.16,13.4344041 L16.9457143,13.5363731 L16.7357143,13.6298446 L16.5171429,13.7190674 L16.3071429,13.7997927 L16.08,13.8805181 L15.87,13.9484974 L15.63,14.0207254 L15.4285714,14.0759585 L15.1671429,14.1396891 L14.9785714,14.1821762 L14.6785714,14.2374093 L14.52,14.2629016 L14.0657143,14.3223834 C14.332736,14.3653681 14.5880088,14.4622571 14.8157143,14.6070466 C14.9614111,14.6864524 15.1170401,14.7464521 15.2785714,14.7854922 C15.3499276,14.7900014 15.421501,14.7900014 15.4928571,14.7854922 L15.7585714,14.7854922 L15.9342857,14.7854922 L16.1614286,14.7557513 L16.3328571,14.7557513 L16.5385714,14.7557513 C16.9696565,14.7481241 17.3975243,14.8306424 17.7942857,14.9979275 C18.0037538,15.096043 18.1961552,15.2265493 18.3642857,15.3845596 C18.3128571,15.4950259 18.2614286,15.6097409 18.2142857,15.724456 C18.1671429,15.839171 18.1371429,15.9241451 18.1028571,16.0218653 C18.0342857,16.2229706 17.9742857,16.4269085 17.9228571,16.6336788 C17.7434862,17.3819626 17.6985129,18.1557258 17.79,18.9194819 C17.79,19.0596891 17.8285714,19.1998964 17.8542857,19.3443523 L17.8757143,19.4590674 C17.8985714,19.5695337 17.9242857,19.6785838 17.9528571,19.7862176 L17.9528571,19.8711917 C17.99,20.0043178 18.03,20.1360276 18.0728571,20.2663212 L18.1028571,20.3427979 C18.14,20.4504318 18.18,20.5566494 18.2228571,20.6614508 L18.2614286,20.7549223 C18.371345,21.0075874 18.497312,21.2530886 18.6385714,21.4899482 L18.6814286,21.5621762 C18.7471429,21.66981 18.8157143,21.7746114 18.8871429,21.8765803 L18.8871429,21.9063212 C18.97,22.0224525 19.0557143,22.1357513 19.1442857,22.2462176 L19.1442857,22.2717098 C19.2271429,22.3736788 19.3128571,22.4728152 19.4014286,22.5691192 L19.4314286,22.6031088 C19.6254909,22.8130616 19.8330683,23.0103312 20.0528571,23.1936788 C20.6234935,23.6637994 21.26959,24.0357589 21.9642857,24.2940933 C21.9589156,24.3959927 21.9589156,24.4981006 21.9642857,24.6 C21.9586941,24.7047281 21.9586941,24.8096761 21.9642857,24.9144041 L22.2557143,27.3531606 C22.1242857,27.4437997 21.9957143,27.5386874 21.87,27.6378238 C15.72,25.6919171 4.79571429,8.06404145 4.79571429,8.06404145 L4.58571429,8.08953368 C5.35714286,7.35875648 4.18285714,4.72455959 4.18285714,4.72455959 C3.6442978,4.48464078 3.0589123,4.36567306 2.46857143,4.3761658 L2.35285714,4.3761658 L2.30142857,4.3761658 L2.21142857,4.3761658 L2.15571429,4.3761658 L2.07,4.3761658 L2.01,4.3761658 L1.92857143,4.3761658 L1.86857143,4.3761658 L1.78285714,4.40165803 L1.72714286,4.40165803 L1.63714286,4.43989637 L1.59,4.43989637 L1.45714286,4.50787565 L1.33285714,4.58435233 L1.29,4.61409326 L1.20428571,4.67782383 L1.15714286,4.71606218 L1.08428571,4.78404145 L1.03714286,4.8307772 L0.968571429,4.90300518 L0.921428571,4.95398964 L0.852857143,5.03896373 L0.81,5.09419689 L0.741428571,5.20041451 L0.707142857,5.25139896 C0.672857143,5.30663212 0.642857143,5.36186528 0.608571429,5.42134715 C-0.437142857,7.46072539 0.96,8.36569948 0.96,8.36569948 C0.965281087,9.10290894 1.01393515,9.83918535 1.10571429,10.5707772 C2.63571429,24.1963731 18.5871429,33.0209326 19.4014286,33.4627979 C19.1742857,34.3507772 17.34,42.2066321 21.5442857,51.2436269 C21.556122,51.2650811 21.5705104,51.2850509 21.5871429,51.3031088 C15.1979905,58.6933837 13.2272508,68.8821448 16.4057143,78.0911917 L16.5,78.3673575 L16.6371429,78.3673575 C16.6318882,78.4314835 16.6233054,78.4952986 16.6114286,78.5585492 C16.5879289,78.6729265 16.5549601,78.785189 16.5128571,78.8941969 C16.4403163,79.0831299 16.3453635,79.2628379 16.23,79.4295337 C16.1057143,79.612228 15.9557143,79.799171 15.8014286,79.9903627 L15.6385714,80.1900518 C14.9785714,80.9803109 14.3142857,81.7493264 14.9014286,81.9617617 L15.33,81.9107772 L22.9928571,81.1630052 L22.5642857,77.6960622 L22.7057143,77.6960622 C22.7057143,77.6960622 22.6371429,77.5940933 22.5257143,77.3986528 L22.5257143,77.3349223 L22.5,77.3349223 C21.9514286,76.3109845 20.5971429,73.1074611 21.5357143,67.8178238 C22.6928571,61.2875648 29.7385714,57.2640415 29.7385714,57.2640415 L29.9271429,57.6889119 L29.9014286,57.6889119 L37.98,75.958342 C37.98,76.0305699 37.98,76.1070466 37.98,76.187772 C37.9747859,76.3705744 37.9532735,76.5525615 37.9157143,76.7316062 C37.8879158,76.8754779 37.8506942,77.0174018 37.8042857,77.1564767 C37.5342857,77.9339896 37.0157143,78.8559585 36.8228571,79.5484974 C36.7950651,79.6418619 36.7735888,79.7369609 36.7585714,79.8331606 C36.7371965,79.9411813 36.7371965,80.0522902 36.7585714,80.1603109 C36.7918879,80.2992301 36.9012992,80.4076966 37.0414286,80.4407254 L37.1442857,80.4109845 L37.3671429,80.3472539 L37.38,80.3132642 Z M28.7057143,26.6521244 C28.5485714,26.5869775 28.39,26.5289119 28.23,26.4779275 L27.96,24.1963731 C27.9384202,24.0220532 27.9011282,23.8500009 27.8485714,23.6822798 C28.3204849,23.3848741 28.7524951,23.0294021 29.1342857,22.6243523 C29.0057143,24.0859067 28.8514286,25.4539896 28.7057143,26.6521244 Z" id="Shape" fill="url(#linearGradient-7)"></path>
                            <path d="M0.804857081,10.9236345 C0.804857081,10.9236345 -0.714527513,9.85021005 0.421854316,7.42015992 C1.55823615,4.99010979 4.28976136,6.41525197 4.28976136,6.41525197 C4.28976136,6.41525197 5.55240783,9.55330543 4.71064352,10.4211805 C3.8688792,11.2890555 0.804857081,10.9236345 0.804857081,10.9236345 Z" id="Shape" fill="#CA7070"></path>
                            <path d="M24.5145781,87 L18.1365569,87.7160097 C18.2452578,88.2852384 18.0914568,88.8715068 17.714451,89.3250201 C16.9715444,90.3668544 15.3886471,91.7023331 16.2497432,92 L25,91.0144811 L24.5145781,87 Z" id="4d99488d-df05-4ea4-b0bc-86897bea43e0" fill="#00695C"></path>
                            <path d="M18.4805796,89.8552876 C18.9098099,89.332359 19.084916,88.6563556 18.9611574,88 L18.4325218,88.0602968 C18.5562804,88.7166525 18.3811742,89.3926558 17.9519439,89.9155844 C17.1061269,91.1168831 15.3039599,92.6567718 16.2843387,93 L16.8129744,92.9397032 C15.8374013,92.596475 17.6395683,91.0565863 18.4805796,89.8552876 Z" id="Shape" fill="#FFFFFF"></path>
                            <path d="M47.2118957,83 L41.212676,84.8171493 C41.4671196,85.5598738 41.4594558,86.3740205 41.1910806,87.1113004 C40.6900658,88.6513345 39.3986572,90.713799 40.3272621,91 L49,88.3969336 L47.2118957,83 Z" id="4d5dc8b9-511c-4b13-afe4-1a204679192b" fill="#00695C"></path>
                            <path d="M34.8877278,3.03544837 C34.8877278,3.03544837 44.5845605,23.738856 34.1975929,37 L30.4673699,34.862194 C30.4673699,34.862194 34.5950757,10.5831265 30,5.51901397 C36.6436408,2.50837588 34.8877278,3.03544837 34.8877278,3.03544837 Z" id="Shape" fill="#00695C"></path>
                            <path d="M29.8048571,5.92363445 C29.8048571,5.92363445 28.2854725,4.85021005 29.4218543,2.42015992 C30.5582361,-0.00989020767 33.2897614,1.41525197 33.2897614,1.41525197 C33.2897614,1.41525197 34.5524078,4.55330543 33.7106435,5.42118048 C32.8688792,6.28905553 29.8048571,5.92363445 29.8048571,5.92363445 Z" id="Shape" fill="#CA7070"></path>
                            <path d="M41.6114356,87.0477002 C41.870993,86.3104203 41.8784049,85.4962736 41.6323216,84.7535491 L47,83.0772288 L46.9749369,83 L41.1728316,84.8171493 C41.418915,85.5598738 41.411503,86.3740205 41.1519457,87.1113004 C40.6673926,88.6513345 39.4184153,90.713799 40.3165093,91 L40.6673926,90.890971 C39.9906892,90.4639409 41.1435913,88.5195911 41.6114356,87.0477002 Z" id="Shape" fill="#FFFFFF"></path>
                            <rect id="Rectangle-path" fill="#CA7070" transform="translate(27.500000, 30.000000) rotate(-6.740000) translate(-27.500000, -30.000000) " x="24" y="25" width="7" height="10" rx="3.5"></rect>
                            <path d="M31.0627451,36.7509353 C31.0627451,36.7509353 34.7215686,12.434527 30.7176471,7.09406734 C30.4117647,7.09406734 30.2156863,7.05130946 30.2156863,7.05130946 L30.1529412,7 L30,7.07696419 C34.1254902,12.2079102 30.4196078,36.8321753 30.4196078,36.8321753 L33.7686275,39 C33.8470588,38.8845537 33.9254902,38.7691074 34,38.6493854 L31.0627451,36.7509353 Z" id="Shape" fill="#FFFFFF"></path>
                            <circle id="Oval" fill="#CA7070" transform="translate(26.500000, 21.500000) rotate(-6.740000) translate(-26.500000, -21.500000) " cx="26.5" cy="21.5" r="7.5"></circle>
                            <path d="M24.8446869,31.9789172 L24.4801288,28.803643 C24.4558679,28.5711654 24.4558679,28.3367022 24.4801288,28.1042245 C21.4541825,26.9445859 19.5595037,23.8557117 19.8531643,20.5609345 C20.1468248,17.2661573 22.5562675,14.5795443 25.7372257,14 L25.3181934,14.0343273 C22.0375886,14.4362836 19.4500148,17.0819024 19.0524393,20.4406359 C18.6548639,23.7993694 20.5502452,27.0014206 23.6420642,28.1943337 C23.6178033,28.4268113 23.6178033,28.6612745 23.6420642,28.8937522 L24.0066223,32.0690263 C24.1085606,33.0171297 24.6071714,33.8733123 25.3733102,34.415815 C26.139449,34.9583178 27.0977483,35.1337732 28,34.8967367 C26.3862631,34.8622378 25.0421913,33.6193314 24.8446869,31.9789172 Z" id="Shape" fill="#FFFFFF"></path>
                            <path d="M37,55.9177825 C37,55.9177825 23.6246756,59.0977444 22.9337758,57.5980794 C18.1471224,47.0962239 20.6583572,38.0310223 20.6583572,38.0310223 C20.4380921,36.1368905 20.9683122,34.2315316 22.1322554,32.7345325 C23.2961986,31.2375334 24.9984121,30.2716603 26.8640443,30.0496121 C28.7294907,29.82596 30.6059943,30.3643334 32.0803224,31.5461748 C33.5546504,32.7280162 34.505896,34.456405 34.7245814,36.3507254 L37,55.9177825 Z" id="Shape" fill="#00695C"></path>
                            <path d="M38.1701868,56 L48,84.4239335 L41.6192441,85.1752079 L32.4361291,64.3069493 C32.4361291,64.3069493 24.5852125,68.8103032 23.2961274,76.1169842 C22.0070422,83.4236651 24.5895238,87.1757446 24.5895238,87.1757446 L17.7690131,88 L17.6612301,87.6909042 C14.1087247,77.3823029 16.341481,65.969863 23.5203161,57.7429568" id="Shape" fill="#263238"></path>
                            <path d="M24.1871192,57.4917654 C18.9787331,46.9842874 21.7112226,37.9142324 21.7112226,37.9142324 C21.2358201,34.1498639 23.971504,30.6872613 27.963987,30 C27.7974266,30 27.635368,30 27.4688076,30.0378269 C25.438802,30.2599939 23.5866133,31.2263841 22.3201198,32.7241847 C21.0536262,34.2219853 20.4766906,36.1283643 20.7163624,38.0235102 C20.7163624,38.0235102 17.9838729,47.0851592 23.192259,57.6010431 C23.4578552,58.134823 25.492592,58.0717781 28,57.7691628 C25.9742664,57.9667034 24.4167024,57.9540944 24.1871192,57.4917654 Z" id="Shape" fill="#FFFFFF"></path>
                            <path d="M21.4757837,38 C21.4757837,38 1.09018277,27.1955831 1,10.4955377 L5.23429588,10 C5.23429588,10 17.9414779,30.40599 24.6622417,31.7443655 C31.3830054,33.0827409 21.4757837,38 21.4757837,38 Z" id="Shape" fill="#00695C"></path>
                            <path d="M32.8214286,65.3323611 L41.7828571,85.8784722 L42.7214286,85.7665278 L33.5928571,64.8372222 C33.5928571,64.8372222 33.3014286,64.9965278 32.8214286,65.3323611 Z" id="Shape" fill="#FFFFFF"></path>
                            <path d="M24.7214286,58.2238889 L23.7828571,58.3358333 C16.646661,66.586806 14.4271663,78.0326313 17.9585714,88.3713889 L18.0657143,88.6813889 L19.0042857,88.5694444 L18.8971429,88.2594444 C15.3657378,77.9206869 17.5852325,66.4748616 24.7214286,58.2238889 Z" id="Shape" fill="#FFFFFF"></path>
                            <path d="M1.7074774,11 L1,11.0816828 C1.09059162,28.0330109 21.5686113,39 21.5686113,39 L22,38.7678489 C19.6359901,37.4179334 1.79375514,26.8120682 1.7074774,11 Z" id="Shape" fill="#FFFFFF"></path>
                            <g id="Shape">
                                <use fill="black" fill-opacity="1" filter="url(#filter-10)" xlink:href="#path-9"></use>
                                <use fill="url(#radialGradient-8)" fill-rule="evenodd" xlink:href="#path-9"></use>
                            </g>
                            <path d="M18.7714286,14.3347368 C18.2627182,14.6526393 17.6944309,14.8673767 17.1,14.9663158 C17.8615562,14.9176627 18.5984345,14.6816548 19.2428571,14.28 C18.7831244,14.3356623 18.320646,14.1999083 17.9673463,13.9055919 C17.6140466,13.6112755 17.4021208,13.1852167 17.3828571,12.7305263 C17.231426,12.6497171 17.0879538,12.5552771 16.9542857,12.4484211 C16.8598284,12.9532403 17.0162827,13.4720358 17.3754025,13.8448262 C17.7345224,14.2176167 18.2531771,14.3996293 18.7714286,14.3347368 Z" id="Shape" fill="#FFFFFF"></path>
                            <path d="M20.1,12.9368421 C20.6930163,12.7157604 21.2604792,12.4334781 21.7928571,12.0947368 C22.6452123,11.6438013 23.5725846,11.3458037 24.5314286,11.2147368 C23.4093997,11.3066349 22.3184144,11.6233164 21.3257143,12.1452632 C20.7933363,12.4840045 20.2258734,12.7662867 19.6328571,12.9873684 C19.5514286,13.0126316 19.4657143,13.0252632 19.3842857,13.0421053 C19.6264646,13.0373163 19.8670103,13.0019382 20.1,12.9368421 Z" id="Shape" fill="#FFFFFF"></path>
                            <path d="M16.8985714,17.7494737 C16.5171429,17.6863158 15.8614286,17.2105263 15.5571429,17.24 C17.0095484,17.0964334 18.4123711,16.6422989 19.6671429,15.9094737 C19.3819417,16.0661205 19.0694189,16.1689432 18.7457143,16.2126316 C17.6078098,16.8010058 16.3651481,17.1684076 15.0857143,17.2947368 C15.39,17.2652632 16.0457143,17.7410526 16.4271429,17.8042105 C16.7557009,17.8425169 17.0883505,17.8297285 17.4128571,17.7663158 C17.2413868,17.7818712 17.0686068,17.7762129 16.8985714,17.7494737 Z" id="Shape" fill="#FFFFFF"></path>
                            <path d="M29.2928571,26.8231579 C28.1431647,26.9168685 26.9870361,26.74678 25.9157143,26.3263158 C23.9785714,25.4842105 22.7014286,23.6189474 21.9771429,21.6694737 C21.6257143,20.7221053 21.3685714,19.72 20.7814286,18.8905263 C20.2409096,18.0745947 19.2928122,17.6104742 18.3042857,17.6778947 C18.0701552,17.681873 17.8366517,17.7029841 17.6057143,17.7410526 C17.6828571,17.7410526 17.7557143,17.7410526 17.8371429,17.7410526 C18.8256694,17.6736321 19.7737668,18.1377526 20.3142857,18.9536842 C20.8971429,19.7957895 21.1714286,20.7852632 21.51,21.7326316 C22.2342857,23.6821053 23.5114286,25.5642105 25.4485714,26.3894737 C26.5198933,26.8099379 27.6760218,26.9800264 28.8257143,26.8863158 C29.0957143,26.8863158 29.37,26.8442105 29.6442857,26.8063158 L29.2928571,26.8231579 Z" id="Shape" fill="#FFFFFF"></path>
                            <path d="M18.4457143,16.2294737 C17.4337012,16.2751242 16.4665945,15.8158899 15.8742857,15.0084211 C15.6840462,14.9925065 15.4950709,14.9643762 15.3085714,14.9242105 C15.9770038,15.9570314 17.2255811,16.4765238 18.4457143,16.2294737 Z" id="Shape" fill="#FFFFFF"></path>
                            <path d="M1.42382635,10.872734 C1.42382635,10.872734 -0.285730069,9.79954513 0.992885532,7.37002829 C1.32528785,6.6633478 1.98947232,6.15366419 2.77821176,6 C1.79080691,6.00004386 0.893034826,6.55227841 0.476703678,7.4156959 C-0.806647536,9.84521274 0.907644492,10.9184016 0.907644492,10.9184016 C1.93534257,11.0271995 2.97230192,11.0271995 4,10.9184016 C3.14145249,10.9722826 2.27974036,10.9570071 1.42382635,10.872734 Z" id="Shape" fill="#FFFFFF"></path>
                        </g>
                    </g>
                </g>
                <g id="Group-37" transform="translate(60.000000, 4.000000)">
                    <path d="M32.6157023,86.8361716 C32.4086587,86.6306726 32.1931644,86.4080487 32.0410507,86.2325183 C31.7469884,85.9043405 31.5417431,85.5046478 31.4452723,85.0723052 L31.5973859,85.0723052 L31.6692174,84.7426506 C33.9961123,73.7904766 30.433093,62.4081134 22.3015516,54.8168585 C22.3188144,54.793097 22.3330137,54.7672005 22.3438054,54.7397964 C24.4276487,48.3873992 24.5573205,41.5433942 22.7156388,35.1146418 C24.5854326,32.7149912 26.261292,30.1665438 27.7269385,27.4940538 C32.8945773,23.4911046 38.260809,17.6986015 39.9129322,10.1722006 C40.1005724,9.35625852 40.2416522,8.53003889 40.3354702,7.69765008 C40.7580081,7.26952716 41.3580119,6.34050043 40.7242051,4.6494149 C40.67226,4.5121238 40.6101094,4.37902372 40.5382884,4.25126058 C40.5171615,4.21272952 40.4918092,4.17419846 40.4664569,4.13994863 C40.4210492,4.06454095 40.3716822,3.99165535 40.3185687,3.92160594 L40.2213849,3.81029398 C40.1719183,3.75487723 40.1197397,3.702009 40.0650459,3.6518885 L39.955186,3.55770146 L39.7861709,3.43782704 L39.6678602,3.36504614 L39.4861689,3.27514033 L39.3720837,3.22376558 L39.1692655,3.15526591 L39.0678564,3.12529731 C38.9720811,3.09960993 38.8763059,3.07963086 38.7805306,3.0653601 C38.1362457,2.98972433 37.4834413,3.0554296 36.8664338,3.25801541 C36.8664338,3.25801541 35.3452973,5.92950243 35.9410758,6.94843497 C35.4805094,7.5392446 34.2509241,9.11901817 32.5607724,11.1483208 C32.5773572,9.44791309 32.4087303,7.75084184 32.0579522,6.08790791 C31.8971354,5.26592335 31.6897487,4.45400077 31.4368215,3.65616973 C31.6607666,3.09104747 31.8171056,1.9950528 30.5494919,0.719246504 C30.4469016,0.615377348 30.3367296,0.519491572 30.2199123,0.432404148 L30.1100524,0.359623252 C30.037843,0.309983741 29.96309,0.264253273 29.8861073,0.222623918 L29.7551206,0.162686709 C29.6875145,0.132718105 29.6156831,0.102749501 29.548077,0.0813433546 L29.4128648,0.0428122919 L29.2100466,0 L29.0748345,0 L28.8720163,0 L28.7452549,0 L28.5297606,0.0214061459 L28.4241261,0.0214061459 C28.3255339,0.0385310627 28.2297587,0.061364285 28.1368003,0.089905813 C27.5191906,0.290524439 26.9514101,0.623430594 26.4720009,1.06602607 C26.4720009,1.06602607 26.1762244,4.1356674 27.1311601,4.81638284 C26.6874952,6.57596803 24.4522696,15.5066121 21.4945042,22.7847017 C20.503685,23.6528809 19.4638965,24.4619708 18.3803997,25.2078775 L18.3803997,24.5485682 C18.3867642,24.4273524 18.3867642,24.3058795 18.3803997,24.1846637 C18.368007,24.0681877 18.3496725,23.9524396 18.3254697,23.8378841 L18.3803997,23.8079155 L18.6085701,23.6794786 L18.9381497,23.4739796 L19.1494187,23.3369803 C19.3071662,23.2256683 19.4592798,23.1100752 19.6057596,22.9902007 L19.7790002,22.8403577 C19.8846347,22.7504519 19.9818184,22.6562649 20.0832275,22.5620778 L20.2268904,22.3565788 C20.3480179,22.2309961 20.4649201,22.0997051 20.5775969,21.9627057 L20.7001329,21.8128627 C20.8071758,21.6787175 20.9085849,21.5360099 21.0043602,21.3847398 L21.1268962,21.2006469 C21.2142207,21.0636476 21.2973198,20.92094 21.3761935,20.772524 L21.4522504,20.6355247 C21.5494341,20.4514318 21.6381671,20.2630577 21.7226746,20.0704024 L21.7902807,19.8991533 C21.8522529,19.745029 21.9085913,19.5866235 21.9592959,19.4239368 C21.9592959,19.3682808 21.9973243,19.3126249 22.0142258,19.2569689 C22.0776065,19.0514699 22.1325364,18.828846 22.1747902,18.623347 C22.1747902,18.5805347 22.1747902,18.5377224 22.1959171,18.4949101 C22.2297201,18.3122443 22.2578893,18.1281515 22.2804247,17.9426315 C22.2804247,17.8784131 22.2804247,17.8184759 22.2804247,17.7542574 C22.2804247,17.5273523 22.3142277,17.3004472 22.3142277,17.0649795 C22.3145904,15.772082 21.9856752,14.5009648 21.359292,13.37456 L21.7099985,13.2803729 L21.9677466,13.1990296 C22.0649304,13.1647798 22.1114095,13.1348112 22.0987334,13.113405 C21.9170421,12.8650937 21.7311254,12.6296261 21.5409833,12.3984397 L21.3550666,12.1843783 C21.2240799,12.030254 21.0888678,11.880411 20.9325287,11.7562554 L20.7170344,11.5336314 C20.5818222,11.4009133 20.4466101,11.2681952 20.2944965,11.1440396 L20.0832275,10.9513843 C19.9142123,10.8015412 19.7451972,10.6645419 19.5719566,10.5232613 L19.4620968,10.4333555 C19.2550532,10.2792313 19.0395588,10.1336695 18.840966,10.0052326 L18.6043448,9.85967082 C18.4691326,9.77404624 18.3296951,9.69270288 18.1818068,9.61564076 L17.9071572,9.47007896 L17.5226477,9.28170488 L17.2395473,9.153268 C17.1043351,9.09761203 16.9648976,9.04195605 16.8170094,8.99486252 L16.5592612,8.90067548 C16.3522176,8.83217582 16.1367233,8.77223861 15.9381305,8.71658263 L15.6170016,8.64380173 L15.2747459,8.57102084 L14.9282648,8.51536486 L14.6113614,8.47683379 L14.2564295,8.44686519 L13.9479769,8.44686519 L13.593045,8.44686519 C13.3958606,8.44686519 13.2000847,8.45685472 13.0057173,8.47683379 C8.40850468,8.85786319 4.38594364,12.9250309 4.38594364,19.3854058 L4.38594364,24.7540672 L11.5690883,24.7540672 L11.5690883,27.1858053 C8.93224714,28.4193006 7.2433542,31.0930761 7.24230001,34.035772 L7.24230001,54.7440776 L1.21268384,83.1286272 L1.18310619,83.1286272 L1.18310619,83.2056893 L0,88.5486633 L8.96202936,90 C9.17369124,89.9167122 9.29386174,89.6895501 9.24512976,89.4648464 C9.22862191,89.3180586 9.193105,89.1741131 9.13949528,89.0367234 C8.99597179,88.6838968 8.82501034,88.3431808 8.6282244,88.0177909 C8.31132095,87.4655123 7.9352622,86.8747027 7.68173945,86.339549 C7.55073267,86.0671326 7.4528335,85.7796161 7.39018828,85.4833032 C7.35973805,85.3307844 7.33997031,85.1762748 7.33103297,85.0209305 L13.92685,63.0582247 L13.8972723,63.0582247 L14.0536113,62.540196 C14.0536113,62.540196 22.4705668,66.1963657 24.6170594,73.5044239 C26.3705918,79.4296451 25.280444,83.2699077 24.8072015,84.5114642 L24.7776238,84.5114642 L24.7776238,84.5842451 C24.6846655,84.8197127 24.6170594,84.9524308 24.6170594,84.9524308 L24.7776238,84.9524308 L24.7776238,88.972505 L33.8748653,88.972505 C34.5678275,88.617163 33.5114827,87.7223861 32.6157023,86.8361716 Z" id="Shape" fill="url(#linearGradient-11)"></path>
                    <path d="M17.5991735,44 C17.5991735,44 33.0311329,27.1724993 27.9868683,11 L23.9398224,11.8618438 C23.9398224,11.8618438 18.5091355,35.562549 12.721112,38.9625229 C6.93308845,42.3624967 17.5991735,44 17.5991735,44 Z" id="Shape" fill="#6C63FF"></path>
                    <path d="M17.5991735,44 C17.5991735,44 33.0311329,27.1724993 27.9868683,11 L23.9398224,11.8618438 C23.9398224,11.8618438 18.5091355,35.562549 12.721112,38.9625229 C6.93308845,42.3624967 17.5991735,44 17.5991735,44 Z" id="Shape" fill="#000000" opacity="0.05"></path>
                    <path d="M28.3004104,11.1422042 L28.9809432,11 C34.0639353,27.1724993 18.4788935,44 18.4788935,44 L18,43.9181248 C19.7979509,41.8927919 33.0431361,26.2244711 28.3004104,11.1422042 Z" id="Shape" fill="#FFFFFF" opacity="0.2"></path>
                    <path d="M28.6430395,11.0640799 C28.6430395,11.0640799 29.7782731,9.58915277 27.9997404,7.74110422 C26.2212077,5.89305566 24.043241,8.08349801 24.043241,8.08349801 C24.043241,8.08349801 23.7321029,11.362577 24.7790406,11.8805574 C25.8259782,12.3985377 28.6430395,11.0640799 28.6430395,11.0640799 Z" id="Shape" fill="#985454"></path>
                    <path d="M27.273816,11.2102066 C27.273816,11.2102066 28.290257,9.71936068 26.6978328,7.85136621 C26.263893,7.30117183 25.6327355,7.02901438 25,7.11925437 C25.7464517,6.82973938 26.5676098,7.0773254 27.1044092,7.7537513 C28.6968333,9.62174576 27.6803924,11.1125917 27.6803924,11.1125917 C26.929691,11.5082532 26.1444844,11.8058297 25.3388136,12 C26.0013203,11.8005902 26.648564,11.5364103 27.273816,11.2102066 Z" id="Shape" fill="#FFFFFF" opacity="0.2"></path>
                    <path d="M25,83 L31.4019928,83 C31.3549347,83.5739965 31.5762192,84.1387878 32.0080986,84.5469832 C32.8709576,85.4846686 34.6008847,86.6122651 33.7885345,87 L25,87 L25,83 Z" id="f4b599d8-1b16-43a9-9308-cf9102d9bdf1" fill="#6C63FF"></path>
                    <path d="M31.5989123,84.5469832 C31.1764996,84.1387878 30.9600657,83.5739965 31.0060922,83 L31.4589409,83 C31.4129143,83.5739965 31.6293482,84.1387878 32.0517609,84.5469832 C32.8957061,85.4846686 34.5877133,86.6122651 33.7931698,87 L33.3403212,87 C34.1472151,86.6122651 32.4552079,85.4846686 31.5989123,84.5469832 Z" id="Shape" fill="#FFFFFF" opacity="0.2"></path>
                    <path d="M2.16507748,82 L8.20653381,83.0455128 C8.04192912,83.8041851 8.139636,84.6002219 8.48191576,85.2891026 C9.1385958,86.7384615 10.6002385,88.600641 9.73172615,89 L1,87.5057692 L2.16507748,82 Z" id="0e0e20dd-ea7e-4aa3-ac26-380ed6cfbd4b" fill="#6C63FF"></path>
                    <path d="M7.9913842,85.2891026 C7.64189279,84.6002219 7.54212728,83.8041851 7.7102001,83.0455128 L2,82.0762821 L2,82 L8.16874647,83.0455128 C8.00067365,83.8041851 8.10043916,84.6002219 8.44993057,85.2891026 C9.12044649,86.7384615 10.6128852,88.600641 9.72607377,89 L9.35404558,88.9371795 C10.0418651,88.4346154 8.63161875,86.6711538 7.9913842,85.2891026 Z" id="Shape" fill="#FFFFFF" opacity="0.2"></path>
                    <rect id="Rectangle-path" fill="#985454" transform="translate(15.500000, 27.000000) rotate(-180.000000) translate(-15.500000, -27.000000) " x="12" y="22" width="7" height="10" rx="3.5"></rect>
                    <circle id="Oval" fill="#985454" cx="15.5" cy="18.5" r="7.5"></circle>
                    <path d="M18.1106864,28.6938643 L18.1106864,25.5067442 C18.1096752,25.2736521 18.0830132,25.0413278 18.0311518,24.813706 C21.0604805,23.3017188 22.67038,20.0142565 21.9621218,16.7865491 C21.2538636,13.5588418 18.4025784,11.1890037 15,11 L15.4418589,11 C18.9305186,11.0012483 21.9653011,13.3135258 22.7867191,16.5962347 C23.608137,19.8789435 22.0028716,23.2795783 18.9016138,24.82654 C18.9534751,25.0541618 18.9801372,25.2864861 18.9811484,25.5195782 L18.9811484,28.6938643 C18.9885934,29.6445207 18.5698085,30.5515726 17.8332039,31.1802126 C17.0965993,31.8088526 16.1145927,32.0972774 15.1413948,31.9708227 C16.8379936,31.7505653 18.105992,30.3511817 18.1106864,28.6938643 Z" id="Shape" fill="#FFFFFF" opacity="0.2"></path>
                    <path d="M8,54.2932499 C8,54.2932499 21.8874277,55.8834377 22.4008417,54.2932499 C25.9989479,43.119303 22.4008417,34.2944003 22.4008417,34.2944003 C22.4008417,32.359805 21.6422281,30.5044458 20.2918872,29.1364804 C18.9415464,27.768515 17.1100912,27 15.2004208,27 C11.2384824,26.9999445 8.02084012,30.2424373 8,34.2560311 L8,54.2932499 Z" id="Shape" fill="#6C63FF"></path>
                    <path d="M8.37980763,54 L2,83 L8.37980763,83 L14.9951115,61.4841444 C14.9951115,61.4841444 23.2674527,64.9931317 25.3912007,72.0068683 C27.5149488,79.020605 25.3912007,83 25.3912007,83 L32.2420009,83 L32.3105089,82.6863949 C34.6090877,72.169872 31.0715414,61.2379249 23.0276747,54" id="Shape" fill="#263238"></path>
                    <path d="M21.5424807,54.3310415 C25.0386188,43.134627 21.5424807,34.29198 21.5424807,34.29198 C21.541628,30.4400291 18.6793867,27.2498927 15,27 C15.1512949,27 15.2985007,27 15.4497955,27 C19.2931169,26.9998841 22.4169597,30.2385513 22.4461608,34.2535337 C22.4461608,34.2535337 25.942299,43.0919089 22.4461608,54.2925952 C22.2662426,54.860746 20.4220809,55.0230748 18.1281236,54.9974439 C19.9886415,54.9889003 21.3870968,54.8052125 21.5424807,54.3310415 Z" id="Shape" fill="#FFFFFF" opacity="0.2"></path>
                    <path d="M14.5616667,61.9224638 L7.988,82.8697101 L7.03033333,82.8697101 L13.7253333,61.5315942 C13.7253333,61.5315942 14.046,61.6618841 14.5616667,61.9224638 Z" id="Shape" fill="#FFFFFF"></path>
                    <path d="M21.859,54.1092754 L22.8166667,54.1092754 C30.9574397,61.2874088 34.5376037,72.1290485 32.2113333,82.5586957 L32.142,82.8697101 L31.1843333,82.8697101 L31.2536667,82.5586957 C33.5799371,72.1290485 29.999773,61.2874088 21.859,54.1092754 Z" id="Shape" fill="#FFFFFF"></path>
                    <path d="M16.9264846,34 C16.9264846,34 38.1083111,25.459854 40,8.93625304 L35.8942715,8 C35.8942715,8 21.2145956,26.8600162 14.4706821,27.4673155 C7.72676856,28.0746148 16.9264846,34 16.9264846,34 Z" id="Shape" fill="#6C63FF"></path>
                    <path d="M40.3025271,9 L41,9.15468227 C39.06787,25.5342809 17.433213,34 17.433213,34 L17,33.7282609 C19.5559567,32.6705686 38.500361,24.2591973 40.3025271,9 Z" id="Shape" fill="#FFFFFF" opacity="0.2"></path>
                    <path d="M40.0155391,8.99999844 C40.0155391,8.99999844 41.6152497,8.13083346 40.736242,5.64368447 C39.8572344,3.15653548 37.0285793,4.23073424 37.0285793,4.23073424 C37.0285793,4.23073424 35.462196,7.12795081 36.1953967,8.06843188 C36.9285974,9.00891295 40.0155391,8.99999844 40.0155391,8.99999844 Z" id="Shape" fill="#985454"></path>
                    <path d="M39.4477499,8.88779174 C39.4477499,8.88779174 41.181949,8.01256732 40.2290427,5.50807899 C39.9852048,4.78803499 39.4093845,4.22744002 38.6800054,4 C39.6170561,4.10082337 40.4100179,4.73303724 40.7122701,5.62028725 C41.6696925,8.12477558 39.9309772,9 39.9309772,9 C38.9447161,8.9959276 37.9618681,8.88455189 37,8.66786355 C37.8083423,8.80870128 38.6270988,8.88226584 39.4477499,8.88779174 Z" id="Shape" fill="#FFFFFF" opacity="0.2"></path>
                    <g id="Shape">
                        <use fill="black" fill-opacity="1" filter="url(#filter-14)" xlink:href="#path-13"></use>
                        <use fill="url(#radialGradient-12)" fill-rule="evenodd" xlink:href="#path-13"></use>
                    </g>
                    <path d="M14,10.0294188 C16.6615565,10.2502701 19.3923568,11.6966297 21.5518962,14.6153314 C21.7076946,14.8231914 14.9174796,16.0400389 14.9174796,16.0400389 L14.4414289,26 L15.8868921,26 L16.3629429,16.0400389 C16.3629429,16.0400389 23.1531578,14.8275218 22.9973594,14.6153314 C20.4266853,11.1726491 17.0856745,9.77392417 14,10.0294188 Z" id="Shape" fill="#FFFFFF" opacity="0.2"></path>
                </g>
            </g>
        </g>
    </g>
</svg>